<svg width="1024" height="1024" viewBox="0 0 1024 1024" fill="none" xmlns="http://www.w3.org/2000/svg">
  <rect width="1024" height="1024" fill="#3182F6" />
  
  <g transform="translate(137, 137) scale(7.5)">
      <defs>
        <radialGradient id="glow" cx="50%" cy="50%" r="50%">
          <stop offset="0%" stopColor="#86EFAC" stopOpacity="0.4" />
          <stop offset="100%" stopColor="#86EFAC" stopOpacity="0" />
        </radialGradient>
      </defs>
      <circle cx="50" cy="50" r="45" fill="url(#glow)" />
      
      <path d="M25 65 Q 50 45 75 65 L 65 94 L 35 94 Z" fill="#D97706" />
      <path d="M22 65 C 22 58, 78 58, 78 65 C 78 72, 22 72, 22 65 Z" fill="#B45309" />
      <path d="M25 65 C 25 62, 75 62, 75 65 C 75 68, 25 68, 25 65 Z" fill="#92400E" />
      
      <path d="M50 62 C 50 40, 43 35, 43 35" stroke="#4ADE80" strokeWidth="5" strokeLinecap="round" />
      
      <path d="M45 40 C 25 40, 20 20, 43 20 C 48 25, 47 38, 45 40 Z" fill="#22C55E" />
      <path d="M46 36 C 65 30, 68 12, 53 18 C 48 22, 45 34, 46 36 Z" fill="#4ADE80" />
      <path d="M40 33 C 35 28, 33 25, 40 25" stroke="#166534" strokeWidth="1.5" strokeLinecap="round" fill="none" opacity="0.3" />
      <path d="M50 28 C 55 23, 58 20, 50 20" stroke="#166534" strokeWidth="1.5" strokeLinecap="round" fill="none" opacity="0.3" />
      
      <circle cx="42" cy="78" r="3" fill="#1E3A8A" />
      <circle cx="58" cy="78" r="3" fill="#1E3A8A" />
      <circle cx="43" cy="77" r="1" fill="white" />
      <circle cx="59" cy="77" r="1" fill="white" />
      <circle cx="37" cy="80" r="3" fill="#F87171" opacity="0.5" />
      <circle cx="63" cy="80" r="3" fill="#F87171" opacity="0.5" />
      <path d="M46 82 Q 50 86 54 82" stroke="#1E3A8A" strokeWidth="2" fill="none" strokeLinecap="round" />
  </g>
</svg>
